<svg xmlns="http://www.w3.org/2000/svg" version="1.1" xmlns:xlink="http://www.w3.org/1999/xlink" xmlns:svgjs="http://svgjs.dev/svgjs" width="2000" height="2000" viewBox="0 0 2000 2000"><g transform="matrix(1,0,0,1,-0.28443113772425477,-0.28443113772459583)"><svg viewBox="0 0 334 334" data-background-color="#ececea" preserveAspectRatio="xMidYMid meet" height="2000" width="2000" xmlns="http://www.w3.org/2000/svg" xmlns:xlink="http://www.w3.org/1999/xlink"><g id="tight-bounds" transform="matrix(1,0,0,1,0.04749999999998522,0.04750000000001364)"><svg viewBox="0 0 333.90454557049503 333.90454557049503" height="333.90454557049503" width="333.90454557049503"><g><svg></svg></g><g><svg viewBox="0 0 333.90454557049503 333.90454557049503" height="333.90454557049503" width="333.90454557049503"><g><path d="M0 166.952c0-92.205 74.747-166.952 166.952-166.952 92.205 0 166.952 74.747 166.953 166.952 0 92.205-74.747 166.952-166.953 166.953-92.205 0-166.952-74.747-166.952-166.953zM166.952 316.63c82.665 0 149.677-67.013 149.678-149.678 0-82.665-67.013-149.677-149.678-149.677-82.665 0-149.677 67.013-149.677 149.677 0 82.665 67.013 149.677 149.677 149.678z" data-fill-palette-color="tertiary" fill="#009b7d" stroke="transparent"></path><ellipse rx="160.27418187383762" ry="160.27418187383762" cx="166.95227278524752" cy="166.95227278524752" fill="#009b7d" stroke="transparent" stroke-width="0" fill-opacity="1" data-fill-palette-color="tertiary"></ellipse></g><g transform="matrix(1,0,0,1,98.10266683171943,71.17305217166896)"><svg viewBox="0 0 137.69921190705617 191.55844122715712" height="191.55844122715712" width="137.69921190705617"><g><svg viewBox="0 0 137.69921190705617 191.55844122715712" height="191.55844122715712" width="137.69921190705617"><g><svg viewBox="0 0 137.69921190705617 191.55844122715712" height="191.55844122715712" width="137.69921190705617"><g id="textblocktransform"><svg viewBox="0 0 137.69921190705617 191.55844122715712" height="191.55844122715712" width="137.69921190705617" id="textblock"><g><svg viewBox="0 0 137.69921190705617 191.55844122715712" height="191.55844122715712" width="137.69921190705617"><g transform="matrix(1,0,0,1,0,0)"><svg width="137.69921190705617" viewBox="3.4 -35.5 25.950000000000003 36.1" height="191.55844122715712" data-palette-color="#a92754"><path d="M16.75 0.6L16.75 0.6Q12.7 0.6 9.7-0.95 6.7-2.5 5.05-5.4 3.4-8.3 3.4-12.45L3.4-12.45 8.65-12.45Q8.65-8.35 10.8-6.13 12.95-3.9 16.7-3.9L16.7-3.9Q19.9-3.9 21.85-5.38 23.8-6.85 23.8-9.5L23.8-9.5Q23.8-11.3 22.73-12.4 21.65-13.5 19.88-14.2 18.1-14.9 16-15.45 13.9-16 11.78-16.68 9.65-17.35 7.88-18.4 6.1-19.45 5.03-21.2 3.95-22.95 3.95-25.65L3.95-25.65Q3.95-28.5 5.48-30.73 7-32.95 9.73-34.23 12.45-35.5 16.15-35.5L16.15-35.5Q19.75-35.5 22.6-34.18 25.45-32.85 27.18-30.43 28.9-28 28.95-24.6L28.95-24.6 23.65-24.6Q23.6-26.6 22.58-28.03 21.55-29.45 19.88-30.23 18.2-31 16.15-31L16.15-31Q13.2-31 11.35-29.6 9.5-28.2 9.5-25.8L9.5-25.8Q9.5-24.1 10.58-23.1 11.65-22.1 13.43-21.48 15.2-20.85 17.32-20.33 19.45-19.8 21.55-19.13 23.65-18.45 25.43-17.32 27.2-16.2 28.28-14.33 29.35-12.45 29.35-9.55L29.35-9.55Q29.35-6.45 27.7-4.17 26.05-1.9 23.2-0.65 20.35 0.6 16.75 0.6Z" opacity="1" transform="matrix(1,0,0,1,0,0)" fill="#a92754" class="wordmark-text-0" data-fill-palette-color="quaternary" id="text-0"></path></svg></g></svg></g></svg></g></svg></g><g></g></svg></g></svg></g></svg></g><defs></defs></svg><rect width="333.90454557049503" height="333.90454557049503" fill="none" stroke="none" visibility="hidden"></rect></g></svg></g></svg>